<svg xmlns="http://www.w3.org/2000/svg" width="400" height="400" viewBox="0 0 400 400"><g fill-rule="evenodd"><path fill="#8f8f87" d="m112.706 1.1-12.694.111-.106 12.095L99.8 25.4l-24.9.103-24.9.103v-11.57c0-6.364-.109-11.855-.243-12.203-.214-.558-1.682-.633-12.394-.633H25.212l-.106 12.1L25 25.4l-12.5.106-12.5.105V126l7.3-.001c4.015 0 14.41-.119 23.1-.264l15.8-.264 2.1-3.213 2.1-3.213V101.2h16.372l1.508-1.3c2.386-2.056 4.173-3.634 5.097-4.5 3.832-3.589 16.136-12.313 23.423-16.607 1.65-.973 3.094-1.898 3.208-2.055s1.044-.646 2.066-1.084 4.618-2.135 7.992-3.772c3.374-1.636 7.214-3.379 8.534-3.874 1.32-.494 2.979-1.154 3.686-1.466.708-.312 2.328-.902 3.6-1.311 1.273-.41 3.034-1.012 3.914-1.338s2.95-.997 4.6-1.491c1.65-.493 3.36-1.042 3.8-1.22s1.34-.433 2-.57 1.92-.434 2.8-.662a33 33 0 0 1 3.103-.625c.826-.115 1.602-.37 1.723-.567.122-.197.92-.358 1.774-.358s1.664-.18 1.8-.4 1.036-.4 2-.4 1.864-.18 2-.4 1.227-.4 2.424-.4 2.176-.18 2.176-.4c0-.228 1.192-.4 2.776-.4 1.527 0 2.888-.18 3.024-.4.137-.222 1.977-.4 4.144-.4 2.566 0 4.065-.169 4.392-.496.693-.693 26.875-.725 27.708-.034.311.259 2.274.562 4.361.674s5.145.401 6.795.643 3.99.54 5.2.662 2.371.386 2.58.586c.209.201 1.118.365 2.02.365s1.811.162 2.02.359 1.1.461 1.98.585c3.389.478 4.615.757 4.827 1.1.121.196.829.356 1.573.356s1.464.18 1.6.4.839.4 1.562.4c2.791 0 2.622-2.058 2.736 33.229l.102 31.771 5.5.111 5.5.112V150.4H200V126h-24.8v24.299l-24.334.297c-13.384.163-25.073.172-25.976.019-1.725-.291-4.108 1.54-6.756 5.191a38 38 0 0 1-1.735 2.194 17 17 0 0 0-1.52 2.1c-.359.605-.793 1.1-.965 1.1-.173 0-.314.242-.314.538s-.36.864-.8 1.262-.8.889-.8 1.09-.503 1.118-1.117 2.038c-1.013 1.515-2.537 4.517-4.506 8.872-.763 1.689-1.986 5.323-2.692 8l-.853 3.246c-.238.906-.432 2.2-.432 2.877s-.151 1.323-.336 1.438c-.486.3-.279 18.032.241 20.639.48 2.407.996 4.533 1.696 7 .25.88.554 2.008.675 2.506s.378 1.004.572 1.124c.193.119.352.539.352.932s.283 1.283.629 1.977l.63 1.261H150v24.4h-12.167c-15.61 0-14.948-.476-7.596 5.468 1.3 1.05 2.589 2.128 2.865 2.395s.862.599 1.3.738.798.409.798.599.359.46.798.599c.438.139 1.023.467 1.3.727 1.429 1.348 11.166 6.439 13.902 7.269.55.166 1.18.428 1.4.582s1.21.523 2.2.821 1.971.69 2.18.872c.209.181.706.33 1.105.33s1.038.163 1.42.363c2.841 1.485 13.649 3.832 19.695 4.277 1.43.105 2.962.371 3.404.592 1.423.709 24.373-.075 25.176-.86.209-.205 1.096-.372 1.972-.372s2.144-.169 2.82-.375 2.578-.67 4.228-1.03c4.311-.942 13.157-3.993 17.732-6.115 4.778-2.217 4.654-2.324 4.662 4.02l.006 4.7H250v24.4h-10.8v18.957c0 21.132.278 19.161-2.8 19.862-4.164.949-7.136 1.674-8.228 2.007-.676.206-1.621.374-2.1.374-.843 0-.872.146-.872 4.4v4.4h-25.162l-.119-2.437-.119-2.438-11.4-.104c-12.267-.113-19.889-.517-20.233-1.074-.118-.191-1.543-.347-3.167-.347s-3.064-.18-3.2-.4-1.317-.4-2.624-.4c-1.317 0-2.376-.178-2.376-.4 0-.22-.799-.4-1.776-.4s-1.888-.18-2.024-.4-1.036-.4-2-.4-1.864-.18-2-.4-.719-.4-1.295-.4c-.577 0-1.601-.168-2.277-.373a68 68 0 0 0-2.828-.767c-3.631-.894-5.237-1.357-5.895-1.699-.382-.199-.976-.361-1.321-.361-2.908 0-26.663-9.731-32.85-13.456-2.695-1.623-2.457-1.62-2.609-.044l-.125 1.3-25.1.103-25.1.103V300.8H59c5.17 0 9.4-.138 9.4-.306s-2.25-2.551-5-5.294-5-5.132-5-5.307-.611-.93-1.357-1.677a32 32 0 0 1-2.5-2.886c-.629-.842-1.371-1.771-1.649-2.065s-.975-1.149-1.548-1.9c-1.68-2.203-1.746-1.862-1.746 9.035v10.4H0V376h49.6v24h50.8v-24h24.8v24h175.2v-24h49.2v24H400v-24.389l-12.5-.105-12.5-.106-.106-12.1-.106-12.1H400v-25.6h-24.8v-24.8H400v-75.2h-25.6v12.405c0 8.856.135 12.623.473 13.164.364.583.362 8.015-.009 32.294-.265 17.345-.478 38.303-.473 46.572l.009 15.035-18.066.265c-9.936.146-21.276.265-25.2.265H324v-44.785l-.9-.224c-.495-.124-2.7-.172-4.9-.108l-4 .117v44.8h-25.338c-13.936 0-25.397-.095-25.469-.211-.072-.117-.262-10.242-.422-22.5-.162-12.364-.449-22.289-.644-22.289-.438 0-.369-24.046.07-24.6.711-.898.958-50.055.253-50.326-1.081-.414-.855-2.829.325-3.46 1.016-.544 2.225.093 2.225 1.172 0 .243.363.841.806 1.328s1.456 1.696 2.249 2.686c1.33 1.659 5.963 6.749 11.345 12.461 8.128 8.627 16.178 17.212 18 19.198.99 1.078 4.77 5.265 8.4 9.304 7.531 8.378 6.585 7.826 13.4 7.825 5.286 0 5.693-.08 6.4-1.25.47-.778 10.963-12.213 14.535-15.841 1.356-1.376 2.465-2.642 2.465-2.813s1.009-1.295 2.243-2.498c1.233-1.202 6.226-6.506 11.094-11.786 4.869-5.28 9.487-10.23 10.263-11 1.55-1.538 4-4.575 4-4.958 0-.133-4.59-.242-10.2-.242H350v-24.4l16.1-.021c8.855-.011 20.105-.002 25 .02l8.9.04V126h-24.8v24.4h-25.6v-12.176c0-7.687.148-12.268.4-12.424s.4-4.721.4-12.375v-12.127l24.8-.298 24.8-.298V26.064l-1.246-.274c-.685-.151-11.935-.14-25 .022L350 26.108V1.2h-50v24.302l-24.8.298-24.8.298V50.4H200V26h50V1.2h-19.1c-10.505.001-27.335.12-37.4.266l-18.3.264V25.6h-24.8V13.443c0-10.717-.075-12.186-.633-12.4-.594-.228-5.456-.221-37.061.057M350 38.149v12.149l-24.564.297c-13.51.163-24.76.175-25 .027-.299-.185-.436-4.09-.436-12.446V26h50zm-50.4 75.457v12.406l-12.3-.106-12.3-.106-.106-12.3-.106-12.3H299.6zm-99.2 11.36c0 .55.702.626 5.3.571 5.036-.06 5.16-.08 2.5-.412-6.497-.81-7.8-.837-7.8-.159M325.2 138.2v12.2H300V126h25.2zM0 213.2V276h23.643c20.829 0 23.615-.071 23.413-.599-.127-.329-1.136-1.941-2.243-3.582s-2.013-3.171-2.013-3.401-.135-.419-.3-.421-.498-.407-.74-.9c-.899-1.83-2.367-4.503-2.58-4.697-.217-.198-6.073-12.094-7.285-14.8-.629-1.404-2.02-5.156-2.745-7.4-1.024-3.175-3.114-11.935-2.921-12.247.12-.194.044-.353-.168-.353s-.485-.945-.604-2.1a85 85 0 0 0-.665-4.7c-.246-1.43-.538-3.95-.65-5.6s-.369-3.171-.572-3.38c-.204-.209-.37-2.864-.37-5.9 0-3.413-.153-5.52-.4-5.52-.528 0-.528-6.674 0-7 .22-.136.4-1.587.4-3.224 0-2.048.15-2.976.48-2.976.373 0 .373-.107 0-.48-.58-.58-.64-2.32-.08-2.32.225 0 .4-1.125.4-2.576 0-1.417.18-2.688.4-2.824s.4-.867.4-1.624.147-1.376.327-1.376c.179 0 .56-1.215.846-2.7.763-3.965 2.024-8.998 2.453-9.795.206-.382.374-1.046.374-1.476s.18-.893.4-1.029.4-.651.4-1.144.143-1.067.318-1.276.547-1.1.827-1.98.654-1.96.832-2.4l.778-1.93c.754-1.873.78-1.87-16.179-1.87H0zm225.106-24.7L225 201l-12.3.106-12.3.106V176h24.811zm74.8 24.8.106 12.3H274.8v-12.133c0-6.674.123-12.256.272-12.406s5.775-.225 12.5-.167L299.8 201zm-125.106.1v12.2h-24.4v-24.4h24.4zm50 24.6v12.4h-24.4v-24.8h24.4z"/><path fill="#3e4447" d="M.067.2C.394.527 400 .627 400 .3c0-.165-90.03-.3-200.067-.3C89.897 0-.043.09.067.2m180.985 54.883c-.173.174-2.686.45-5.584.612-9.657.541-12.065.76-12.448 1.134-.209.204-1.413.371-2.676.371s-2.408.18-2.544.4-1.216.4-2.4.4-2.264.18-2.4.4-.867.4-1.624.4-1.376.18-1.376.4-.799.4-1.776.4-1.888.18-2.024.4-.867.4-1.624.4-1.376.18-1.376.4-.619.4-1.376.4-1.488.18-1.624.4-.676.4-1.2.4-1.064.18-1.2.4-.856.4-1.6.4-1.464.18-1.6.4-.687.4-1.224.4-.976.18-.976.4-.529.4-1.176.4-1.288.18-1.424.4-.687.4-1.224.4-.976.18-.976.4-.54.4-1.2.4-1.2.18-1.2.4-.36.4-.8.4-.8.18-.8.4-.439.4-.976.4-1.088.18-1.224.4-.51.4-.832.4-2.129.72-4.016 1.6-3.483 1.6-3.546 1.6-1.837.81-3.941 1.8-3.998 1.8-4.208 1.8c-.585 0-3.76 1.713-4.632 2.5-.426.385-1.281.924-1.9 1.197-.619.274-1.125.606-1.125.738 0 .131-.855.672-1.9 1.202s-2.249 1.277-2.675 1.662c-.427.386-.929.701-1.117.701s-.728.36-1.2.8-1.095.8-1.383.8-.525.151-.525.336c0 .184-.413.524-.918.754-.931.424-5.187 3.515-8.043 5.839-.858.699-1.737 1.339-1.953 1.422s-1.133.848-2.037 1.7c-.905.852-1.795 1.549-1.978 1.549s-.995.687-1.802 1.526c-.808.839-1.767 1.694-2.13 1.9-.982.555-8.771 8.166-10.009 9.779-.588.767-1.758 2.143-2.6 3.058-1.994 2.168-2.295 2.542-5.132 6.382-5.976 8.088-7.425 10.205-10.513 15.355-3.425 5.712-7.482 14.846-7.327 16.5.056.605-.091 1.1-.328 1.1-.236 0-.43.45-.43 1s-.18 1-.4 1-.4.349-.4.776-.18.888-.4 1.024-.4.687-.4 1.224-.18.976-.4.976-.4.54-.4 1.2-.18 1.2-.4 1.2-.4.54-.4 1.2-.18 1.2-.4 1.2-.4.594-.4 1.32-.18 1.5-.4 1.72-.429 1.156-.465 2.08-.217 1.68-.401 1.68-.334.72-.334 1.6-.18 1.6-.4 1.6-.4.435-.4.967c0 .531-.161 1.026-.358 1.1-.729.271-2.699 14.75-2.287 16.807.12.602.045 1.203-.168 1.334-.524.324-.512 12.868.013 13.192.227.14.4 2.13.4 4.6s.173 4.46.4 4.6c.22.136.4 1.396.4 2.8s.18 2.664.4 2.8.4.989.4 1.895c0 .907.166 2.201.369 2.877s.762 2.938 1.243 5.028c1.039 4.515 2.55 9.642 3.596 12.2.18.44.821 2.107 1.425 3.705.603 1.598 1.338 3.105 1.632 3.349s.535.675.535.957.34 1.205.756 2.051c.415.846 1.438 2.978 2.271 4.738.834 1.76 1.844 3.678 2.245 4.262.4.584.728 1.349.728 1.7s.18.638.4.638.4.27.4.6.146.6.325.6.573.63.875 1.4.696 1.4.875 1.4.325.225.325.5c.001.275.446 1.017.989 1.649.544.632 1.095 1.487 1.227 1.9.131.413.386.751.568.751s.602.682.936 1.516c.757 1.893 9.13 12.452 13.108 16.531 1.635 1.676 4.412 4.54 6.172 6.365 7.23 7.497 16.929 14.963 28.487 21.926 2.247 1.354 4.2 2.462 4.339 2.462.353 0 3.13 1.308 3.374 1.589.451.52 8.428 4.198 15.2 7.008 1.43.593 2.913 1.241 3.295 1.441s.885.362 1.119.362 1.17.36 2.08.8 1.972.8 2.358.8c.385 0 .812.18.948.4s.676.4 1.2.4 1.064.18 1.2.4.676.4 1.2.4 1.064.18 1.2.4.599.4 1.029.4 1.094.162 1.476.361 1.46.559 2.395.8l3.4.878c.935.241 2.013.601 2.395.8s1.316.361 2.076.361 1.493.18 1.629.4.856.4 1.6.4 1.464.18 1.6.4 1.036.4 2 .4 1.864.18 2 .4 1.191.4 2.344.4 2.267.165 2.476.368c.375.363 2.941.657 9.18 1.054 1.76.112 3.58.395 4.044.628 1.39.7 33.306.208 38.756-.597 7.492-1.107 13.178-2.161 14.4-2.67.44-.183 1.52-.441 2.4-.574l3.103-.467c.826-.124 1.602-.387 1.723-.584.122-.197.603-.358 1.069-.358.951 0 3.597-.854 3.905-1.26.296-.39.243-70.23-.053-70.526-.139-.139-.859.086-1.6.5-2.128 1.19-10.292 4.328-13.747 5.285-11.027 3.052-15.241 3.57-31.3 3.851-8.859.155-12.5.092-12.5-.216 0-.271-1.053-.434-2.8-.434-1.6 0-2.8-.171-2.8-.4 0-.22-.799-.4-1.776-.4s-1.888-.18-2.024-.4-.856-.4-1.6-.4-1.464-.18-1.6-.4-.856-.4-1.6-.4-1.464-.18-1.6-.4-.63-.4-1.097-.4c-.764 0-4.434-1.121-6.503-1.987-.44-.184-1.88-.737-3.2-1.228-2.903-1.081-6.439-2.642-7.8-3.445-.55-.324-1.315-.689-1.7-.811s-.7-.381-.7-.576-.36-.353-.8-.353-.8-.18-.8-.4-.236-.4-.525-.4c-.288 0-.873-.315-1.3-.7-.426-.385-1.27-.955-1.875-1.268-.605-.312-1.1-.717-1.1-.9 0-.182-.236-.332-.525-.332-.288 0-.911-.36-1.383-.8s-.954-.8-1.071-.8c-.213 0-1.457-.97-2.437-1.9-.29-.275-.635-.5-.766-.5-.203 0-1.956-1.483-3.574-3.022-.244-.233-.759-.542-1.144-.688s-.7-.541-.7-.877c0-.346-.348-.613-.8-.613-.492 0-.804-.27-.81-.7-.005-.385-1.279-2.14-2.831-3.9-3.864-4.381-6.56-7.96-8.737-11.6-1.903-3.181-6.422-12.365-6.422-13.051 0-.386-.18-.813-.4-.949s-.4-.676-.4-1.2-.18-1.064-.4-1.2-.4-.766-.4-1.4-.18-1.264-.4-1.4-.4-1.036-.4-2-.18-1.864-.4-2-.4-1.407-.4-2.824c0-1.451-.175-2.576-.4-2.576-.512 0-.544-12.491-.034-13.02.202-.209.455-1.46.564-2.78s.403-3.3.656-4.4c.252-1.1.558-2.587.68-3.304s.383-1.402.578-1.523c.196-.121.356-.649.356-1.173s.18-1.064.4-1.2.4-.599.4-1.029.16-1.094.356-1.476c.487-.949 1.86-4.013 2.507-5.595.293-.715.668-1.3.835-1.3s.302-.36.302-.8.159-.8.353-.8c.195 0 .457-.315.583-.7.412-1.259 4.053-7.059 5.245-8.356.23-.25.779-.956 1.219-1.567 5.402-7.505 18.274-17.99 28.2-22.969 1.87-.938 4.3-2.159 5.4-2.714 2.478-1.249 8.704-3.58 12-4.493 4.324-1.196 7.243-1.87 12.2-2.817 9.949-1.899 27.935-1.899 36.6 0 .88.193 2.68.57 4 .839 6.889 1.399 14.44 3.997 21.679 7.457 2.795 1.335 2.768 1.392 2.399-5.143-.178-3.155-.213-14.035-.076-24.178.344-25.683-.059-41.359-1.063-41.359-.407 0-.739-.18-.739-.4s-.72-.4-1.6-.4-1.6-.18-1.6-.4-.72-.4-1.6-.4-1.6-.18-1.6-.4-.81-.4-1.8-.4-1.8-.162-1.8-.36-.765-.462-1.7-.587-2.51-.334-3.5-.463-2.16-.397-2.6-.595-1.79-.45-3-.562c-2.17-.2-6.595-.623-15.6-1.49-5.884-.567-18.536-.874-18.948-.46M263.6 224.138c0 .584.18 1.062.4 1.062.258 0 .4 4.333.4 12.2s-.142 12.2-.4 12.2c-.264 0-.4 16.067-.4 47.4v47.4h49.655l-.062-22.1c-.034-12.155.051-26.96.188-32.9.299-12.907.556-11.66-3.213-15.6-4.711-4.924-7.372-7.785-9.678-10.404-4.491-5.101-8.507-9.368-13.99-14.866-3.135-3.143-5.701-5.853-5.701-6.023-.001-.169-2.071-2.434-4.6-5.033-2.53-2.599-4.599-4.902-4.599-5.117s-1.44-1.816-3.2-3.557-3.2-3.416-3.2-3.721-.36-.881-.8-1.279c-.781-.707-.8-.699-.8.338m109.425.329c-.426.733-1.281 1.81-1.9 2.393-.619.584-1.125 1.264-1.125 1.513s-1.98 2.421-4.4 4.827-4.4 4.65-4.4 4.987-.135.614-.3.615c-.585.004-8.1 7.805-8.1 8.407 0 .531-1.499 1.993-2.862 2.791-.563.33-6.214 6.27-12.557 13.2s-11.858 12.891-12.257 13.247c-.836.747-1.15 23.953-.324 23.953.258 0 .4 4.333.4 12.2s-.142 12.2-.4 12.2c-.256 0-.4 3.533-.4 9.8v9.8h24.167c13.292 0 24.452-.109 24.8-.243.763-.292.995-94.557.233-94.557-.584 0-.545-24.285.039-24.48.242-.08.377-.56.3-1.066-.131-.863-.186-.838-.914.413"/><path fill="#7c7c74" d="M74.858 1.1c-22.865.096-25.318.168-25.1.736.133.346.242 5.836.242 12.2v11.57l24.9-.103 24.9-.103.106-12.094.106-12.095 12.694-.111L125.4.988l-12.6.003c-6.93.002-24.004.051-37.942.109m75.143.033c.254.085.399 4.565.399 12.3V25.6h24.8V1.73l18.3-.264a3148 3148 0 0 1 37.4-.266H250V26h-50v24.4h50.4V26.098l24.8-.298 24.8-.298V1.2h50V26h-50v12.176c0 8.356.137 12.261.436 12.446.24.148 11.49.136 25-.027L350 50.298v-24.19l23.754-.296c13.065-.162 24.315-.173 25-.022l1.246.274V1.2l-25.1-.086c-41.254-.14-225.33-.125-224.899.019M0 13.406v12.205l12.5-.105L25 25.4l.106-12.1.106-12.1H0zm184.9 40.892a112 112 0 0 0 7 0c1.925-.073.35-.133-3.5-.133s-5.425.06-3.5.133m-10.639.402c-.102.165.742.249 1.877.186 3.678-.204 4.125-.365 1.186-.426-1.582-.033-2.96.075-3.063.24m23.439-.009c.825.087 2.175.087 3 0 .825-.086.15-.157-1.5-.157s-2.325.071-1.5.157m-31.848.825c-.108.174.466.254 1.276.177 2.474-.234 2.765-.398.796-.447-1.032-.025-1.965.096-2.072.27m41.648-.034a5.7 5.7 0 0 0 1.8 0c.495-.095.09-.173-.9-.173s-1.395.078-.9.173m-47 .794c.385.1 1.015.1 1.4 0 .385-.101.07-.183-.7-.183s-1.085.082-.7.183m-5.055.852c-.112.18.328.249.976.154.649-.095 1.179-.242 1.179-.327 0-.305-1.957-.148-2.155.173m82.155 4.189c.996.503 1.001.534 1.214 7.494l.215 6.989.085-6.838c.09-7.193-.144-8.175-1.945-8.156-.313.003-.119.233.431.511M362.9 101.1l-12.5.111v12.171c0 7.682-.148 12.262-.4 12.418s-.4 4.737-.4 12.424V150.4h25.6V126H400v-25.2l-12.3.094c-6.765.052-17.925.144-24.8.206m-312.5 9.047v8.947l-1.849 2.753c-1.017 1.514-1.941 3.023-2.053 3.353-.113.33.764-.84 1.949-2.6 3.059-4.546 5.358-7.578 6.964-9.184.764-.764 1.389-1.535 1.389-1.714s2.16-2.535 4.8-5.236 4.8-4.991 4.8-5.089c0-.097-3.6-.177-8-.177h-8zm224.494 3.353.106 12.3 12.3.106 12.3.106V101.2h-24.812zM180.6 124.249c-2.64.3-5.88.657-7.2.792s-2.571.406-2.78.602c-.209.197-1.053.357-1.876.357s-1.608.18-1.744.4-.856.4-1.6.4-1.464.18-1.6.4-.766.4-1.4.4-1.264.18-1.4.4-.676.4-1.2.4-1.064.18-1.2.4-.563.4-.948.4c-.386 0-1.447.36-2.358.8-.91.44-1.83.8-2.044.8s-1.887.74-3.719 1.645c-6.436 3.18-9.68 4.96-12.409 6.81-1.253.85-2.388 1.545-2.522 1.545s-.819.539-1.522 1.198-1.415 1.199-1.583 1.2-1.247.9-2.4 1.998-2.305 1.998-2.562 2-.526.139-.6.304-.984 1.065-2.024 2-1.726 1.7-1.524 1.7.487-.193.632-.428c.166-.268.876-.325 1.89-.154.894.151 12.575.141 25.959-.022l24.334-.297V126H200v24.4h50.4v-24.358l-5.601-.121-5.6-.121v4.276c.001 5.031-.086 5.133-3.099 3.604-1.265-.642-3.2-1.572-4.3-2.067a87 87 0 0 1-2.695-1.257c-.382-.196-.961-.356-1.287-.356-.327 0-1.235-.36-2.018-.8s-1.858-.8-2.389-.8-1.075-.18-1.211-.4-.766-.4-1.4-.4-1.264-.18-1.4-.4-.766-.4-1.4-.4-1.264-.18-1.4-.4-.957-.4-1.824-.4-1.576-.149-1.576-.332c0-.182-2.88-.248-6.4-.147-5.727.165-6.4.116-6.4-.468 0-.482.374-.653 1.424-.653.783 0 1.321-.165 1.196-.367-.347-.562-16.987-.402-22.42.216m25 .551c.33.213 1.32.388 2.2.388 1.179 0 1.442-.102 1-.388-.33-.213-1.32-.388-2.2-.388-1.179 0-1.442.102-1 .388m-192.9 1.1-12.7.111v24.372l16.4.108c9.02.06 16.4-.044 16.4-.231 0-.416.903-2.495 2.44-5.616.638-1.296 1.16-2.601 1.16-2.9s.18-.544.4-.544.4-.278.4-.617.36-1.003.8-1.475.8-1.185.8-1.583c0-.399.146-.725.325-.725s.573-.63.875-1.4.696-1.4.875-1.4.325-.193.325-.428.54-1.213 1.2-2.172 1.2-1.859 1.2-2 .549-1.053 1.219-2.028l1.219-1.772-10.319.094c-5.675.052-16.034.145-23.019.206M300 138.2v12.2h25.2V126H300zm-99.6 50.406v12.606l12.3-.106L225 201l.106-12.5.105-12.5H200.4zm-176.1-9.578c-.165.168-.3.851-.3 1.519 0 .867.123 1.09.431.782.237-.237.372-.921.3-1.519s-.266-.949-.431-.782m-1.1 6.348c0 .537.18 1.088.4 1.224.233.144.4-.263.4-.976 0-.673-.18-1.224-.4-1.224s-.4.439-.4.976m-.533 8.091c-.436.435-.311 6.933.133 6.933.237 0 .4-1.467.4-3.6 0-3.604-.036-3.83-.533-3.333m252.405 7.594c-.149.15-.272 5.732-.272 12.406V225.6h25.212l-.106-12.3-.106-12.3-12.228-.106c-6.725-.058-12.35.017-12.5.167m91.028.043-16.1.105V225.6h10.2c5.61 0 10.2.121 10.2.269 0 .147-.315.628-.7 1.068s-.498.683-.252.54c.247-.143 1.237-1.346 2.2-2.672 2.016-2.775 3.026-3.024 2.821-.695l-.132 1.49H400v-24.4h-8.367c-4.602 0-8.607-.045-8.9-.1s-7.778-.053-16.633.004M150.4 213.4v12.2h24.4v-24.4h-24.4zm-127.146-4.324c-.029 1.362.081 2.56.246 2.662s.247-.652.183-1.676c-.199-3.174-.372-3.571-.429-.986m.839 7.724c0 .77.082 1.085.183.7s.1-1.015 0-1.4c-.101-.385-.183-.07-.183.7m238.579 5.377c-.819.621-.814 3.049.007 3.319.337.11.413-.251.256-1.219-.271-1.672.402-2.239 1.49-1.254.911.824 1.097.042.204-.852-.702-.701-1.025-.7-1.957.006M200.4 238v12.4h24.4v-24.8h-24.4zm-93.2-11.655c0 .189.744 1.764 1.654 3.5a347 347 0 0 1 2.1 4.052c.245.493.581.898.746.9s.3.228.3.503c.001.275.451 1.023 1 1.662.55.639 1 1.29 1 1.446s.537.893 1.194 1.638 1.196 1.468 1.2 1.607c.003.139.827 1.129 1.83 2.2s2.307 2.577 2.896 3.347a15.6 15.6 0 0 0 3.08 3.093c.22.169 6.115.257 13.1.196l12.7-.111V226h-21.4c-11.77 0-21.4.155-21.4.345m255.186 8.755-2.186 2.3 2.3-2.186c2.137-2.032 2.483-2.414 2.186-2.414-.062 0-1.097 1.035-2.3 2.3M28.244 237c.329 1.471.558 1.79.55.767-.003-.422-.189-1.037-.412-1.367-.297-.438-.334-.276-.138.6m329.742 2.9-2.186 2.3 2.3-2.186c2.137-2.032 2.483-2.414 2.186-2.414-.062 0-1.097 1.035-2.3 2.3m-328.938 0c.144.605.395 1.37.556 1.7s.698 1.77 1.191 3.2 1.062 2.776 1.262 2.99-.198-1.135-.884-3-1.419-3.975-1.629-4.69c-.463-1.578-.864-1.74-.496-.2m324.538 4.8L351.4 247l2.3-2.186c2.137-2.032 2.483-2.414 2.186-2.414-.062 0-1.097 1.035-2.3 2.3m-65.386 4.5c1.306 1.32 2.465 2.4 2.575 2.4s-.869-1.08-2.175-2.4-2.465-2.4-2.575-2.4.869 1.08 2.175 2.4m-25.4 13.976c0 6.858-.16 12.476-.358 12.598-.515.319-.573 24.626-.059 24.626.264 0 .445 4.513.517 12.9.061 7.095.154-4.065.206-24.8s.004-37.7-.106-37.7-.2 5.569-.2 12.376m111.671 12.444.071 24.98.377-24.532c.277-18.025.258-24.651-.071-24.98-.331-.331-.429 6.093-.377 24.532m-29.484-21.92-2.387 2.5 2.5-2.387c1.375-1.314 2.5-2.439 2.5-2.5 0-.296-.395.065-2.613 2.387M125.2 251.725c0 .069.585.654 1.3 1.3l1.3 1.175-1.175-1.3c-1.095-1.212-1.425-1.484-1.425-1.175m169.634 4.522c.531.686 1.046 1.176 1.145 1.088s-.336-.649-.966-1.247L293.869 255zm41.551 6.853c-5.113 5.371-6.143 6.5-5.925 6.5.127 0 2.072-1.98 4.322-4.4s4.024-4.4 3.942-4.4-1.134 1.035-2.339 2.3m-97.432 7.9c0 2.64.065 3.668.144 2.284.078-1.383.077-3.543-.002-4.8s-.143-.124-.142 2.516m88.834 1.5L325.4 275l2.5-2.387c1.375-1.314 2.5-2.439 2.5-2.5 0-.296-.395.065-2.613 2.387m-280.74 2.879c.214.557-2.201.621-23.404.621H0v24.8h49.6v24.806l25.1-.103 25.1-.103.119-1.211c.107-1.095-.086-1.322-2-2.355-3.884-2.096-12.302-7.521-12.312-7.934-.004-.165-.277-.3-.607-.3s-.6-.141-.6-.314c0-.172-.533-.629-1.185-1.014s-1.417-.925-1.7-1.199c-.283-.275-1.145-.941-1.915-1.482a27 27 0 0 1-2.559-2.087c-.638-.607-1.321-1.104-1.519-1.104-.434 0-.671-.223-9.722-9.127-3.96-3.896-4.995-4.829-2.3-2.073s4.9 5.144 4.9 5.306-4.23.294-9.4.294h-9.4v-10.443c0-9.214.072-10.415.613-10.207.585.224-1.691-3.007-2.313-3.283-.165-.074-.3-.468-.3-.877 0-.408-.178-.853-.395-.987-.227-.14-.294.02-.158.376m127.053-.303c.385.1 1.015.1 1.4 0 .385-.101.07-.183-.7-.183s-1.085.082-.7.183m33.745.052c-.112.18.328.249.976.154.649-.095 1.179-.242 1.179-.327 0-.305-1.957-.148-2.155.173m-28.445.675c.914.318 3.329.406 3.148.113-.107-.174-.95-.302-1.872-.284-.922.017-1.496.094-1.276.171m134.293.597c.689.562.728 1.349.621 12.4l-.114 11.8h9.801L324 288.644c0-10.221.088-12.02.606-12.4.454-.332-.933-.444-5.521-.444-5.507 0-6.053.061-5.392.6M239.2 288.2v12.2H250V276h-10.8zm-.222 25c0 6.93.055 9.765.121 6.3a395 395 0 0 0 0-12.6c-.066-3.465-.121-.63-.121 6.3m136.222 0v12.4H400v-24.8h-24.8zm-61.204 22-.196 9.8-7.2.214-7.2.214 7.313.086c5.605.066 7.358-.033 7.507-.422.107-.279.145-4.824.084-10.1l-.112-9.592zm-76.196 3.227c-1.345.862-1.161 1.011.381.309.561-.256 1.019-.616 1.019-.8 0-.418.043-.433-1.4.491M224 342c-.33.213-1.354.391-2.276.394s-1.788.186-1.924.406-1.216.4-2.4.4-2.264.18-2.4.4-1.572.4-3.19.4c-1.778 0-3.001.174-3.089.438-.103.307-5.159.457-16.896.5-9.212.034-15.956.19-14.987.346s6.532.263 12.362.237l10.6-.046.119 2.462.119 2.463H225.2V346c0-4.415-.091-4.717-1.2-4m-66.7 1.076c.385.1 1.015.1 1.4 0 .385-.101.07-.183-.7-.183s-1.085.082-.7.183m4.66.644c.186.186.946.276 1.689.199 1.318-.136 1.309-.144-.339-.339-.929-.109-1.537-.047-1.35.14m6.403.804c.179.179 1.206.266 2.281.194l1.956-.131-2.281-.193c-1.255-.107-2.135-.048-1.956.13m95.187.788c.173.171 2.819.261 5.882.198l5.568-.113-5.881-.198c-3.235-.11-5.741-.059-5.569.113M324 345.3c0 .165 5.985.261 13.3.214 13.291-.086 11.795-.22-4.6-.412-4.786-.056-8.701.033-8.7.198m50.894 18 .106 12.1 12.5.106 12.5.105V351.2h-25.212zM0 388v12h49.6v-24H0zm100.4 0v12h24.8v-24h-24.8zm200 0v12h49.2v-24h-49.2z"/><path fill="#666868" d="M184.48 54.698c1.914.073 5.154.073 7.2 0 2.046-.072.48-.132-3.48-.133-3.96 0-5.634.059-3.72.133m15.62.378c.385.1 1.015.1 1.4 0 .385-.101.07-.183-.7-.183s-1.085.082-.7.183m-32.995.807c.497.096 1.217.092 1.6-.008.382-.1-.025-.179-.905-.174-.88.004-1.193.086-.695.182m40.8 0c.497.096 1.217.092 1.6-.008.382-.1-.025-.179-.905-.174-.88.004-1.193.086-.695.182m-43.805.393c.385.1 1.015.1 1.4 0 .385-.101.07-.183-.7-.183s-1.085.082-.7.183m73.6 5.356c.616.359.711 1.205.789 7.088l.09 6.68.121-6.547c.119-6.479-.076-7.672-1.249-7.641-.248.007-.136.196.249.42M60.581 107.7 59 109.4l1.7-1.581c1.581-1.471 1.884-1.819 1.581-1.819-.065 0-.83.765-1.7 1.7M188.9 123.497a86 86 0 0 0 6.2 0c1.705-.075.31-.136-3.1-.136s-4.805.061-3.1.136M179 124l-1.6.286 1.476.057c.812.031 1.588-.123 1.724-.343s.192-.374.124-.343-.844.185-1.724.343m-5.6.8-1.2.305 1.076.048c.592.026 1.188-.133 1.324-.353s.192-.379.124-.353-.664.185-1.324.353m65.544 4.4c0 2.09.068 2.945.15 1.9a29 29 0 0 0 0-3.8c-.082-1.045-.15-.19-.15 1.9m-.144 4.38c0 .316-.307.433-.801.304-.44-.115-.699-.046-.576.153.123.2.473.363.777.363.633 0 1.198-.735.84-1.093-.132-.132-.24-.009-.24.273m-108.313 9.92c-.957.935-.973.981-.106.306 1.707-1.33 1.788-1.406 1.505-1.406-.15 0-.78.495-1.399 1.1M23.34 197.6c0 1.87.069 2.635.153 1.7s.084-2.465 0-3.4-.153-.17-.153 1.7m.298 11.8c-.014 1.1.127 2.24.313 2.534.198.312.265-.352.162-1.6-.242-2.931-.445-3.329-.475-.934m1.255 10.2c0 .77.082 1.085.183.7s.1-1.015 0-1.4c-.101-.385-.183-.07-.183.7M263.378 238c0 6.93.055 9.765.121 6.3a395 395 0 0 0 0-12.6c-.066-3.465-.121-.63-.121 6.3m103.408-7.3L364.6 233l2.3-2.186c2.137-2.032 2.483-2.414 2.186-2.414-.062 0-1.097 1.035-2.3 2.3m-4.201 4.6-1.985 2.1 2.1-1.985c1.951-1.844 2.283-2.215 1.985-2.215-.063 0-1.008.945-2.1 2.1m-8.599 9.4L351.8 247l2.3-2.186c2.137-2.032 2.483-2.414 2.186-2.414-.062 0-1.097 1.035-2.3 2.3M119.4 246c.859.88 1.652 1.6 1.762 1.6s-.503-.72-1.362-1.6-1.652-1.6-1.762-1.6.503.72 1.362 1.6m119.148 25.2c0 2.31.066 3.255.147 2.1a36 36 0 0 0 0-4.2c-.081-1.155-.147-.21-.147 2.1m-61.648 4.676c.385.1 1.015.1 1.4 0 .385-.101.07-.183-.7-.183s-1.085.082-.7.183m28.605.007c.497.096 1.217.092 1.6-.008.382-.1-.025-.179-.905-.174-.88.004-1.193.086-.695.182m-25.6.4c.497.096 1.217.092 1.6-.008.382-.1-.025-.179-.905-.174-.88.004-1.193.086-.695.182M238.978 288c0 6.71.054 9.455.121 6.1s.067-8.845 0-12.2-.121-.61-.121 6.1m-52.1-11.302c2.353.071 6.313.071 8.8.001s.562-.128-4.278-.129c-4.84 0-6.875.058-4.522.128M374.179 313.2c0 7.15.054 10.075.12 6.5.067-3.575.067-9.425 0-13-.066-3.575-.12-.65-.12 6.5m-135.601-.4c0 6.71.054 9.455.121 6.1s.067-8.845 0-12.2-.121-.61-.121 6.1m75.195 22.2c0 5.28.057 7.385.126 4.677a223 223 0 0 0 0-9.6c-.07-2.572-.127-.357-.126 4.923m10.4 0c0 5.28.057 7.385.126 4.677a223 223 0 0 0 0-9.6c-.07-2.572-.127-.357-.126 4.923M217.8 342.8c-1.107.282-1.123.309-.2.347.55.022 1.27-.134 1.6-.347.681-.44.329-.44-1.4 0m-6.3 1.082a5.7 5.7 0 0 0 1.8 0c.495-.095.09-.173-.9-.173s-1.395.078-.9.173m-41.795.405c.609.092 1.509.09 2-.005s-.005-.171-1.105-.168-1.503.081-.895.173m93.597.113c.136.498 1.176.603 6.131.618l5.967.017-5.783-.129c-3.969-.088-5.893-.282-6.131-.617-.25-.352-.301-.321-.184.111m-88.402.287a9 9 0 0 0 2.2 0c.605-.092.11-.167-1.1-.167s-1.705.075-1.1.167m29.407.003c.719.089 1.799.087 2.4-.004s.013-.164-1.307-.162-1.812.077-1.093.166m98.412.408c1.825.074 4.705.074 6.4-.001s.201-.136-3.319-.135c-3.52 0-4.906.062-3.081.136m28.981.001c3.465.067 9.135.067 12.6 0 3.465-.066.63-.121-6.3-.121s-9.765.055-6.3.121"/><path fill="#5c5c5c" d="M212.529.7c7.001.061 18.341.061 25.2 0C244.588.638 238.86.588 225 .588S205.528.639 212.529.7m100.2 0c6.891.061 18.051.061 24.8 0C344.278.638 338.64.588 325 .588s-19.162.05-12.271.112m-74.141 99.7c0 13.75.05 19.375.112 12.5.061-6.875.061-18.125 0-25-.062-6.875-.112-1.25-.112 12.5M200.3 123.482a5.7 5.7 0 0 0 1.8 0c.495-.095.09-.173-.9-.173s-1.395.078-.9.173M24.493 182.8c0 .77.082 1.085.183.7s.1-1.015 0-1.4c-.101-.385-.183-.07-.183.7m-.779 7.4c.003 1.1.081 1.503.173.895.092-.609.09-1.509-.005-2s-.171.005-.168 1.105m77.214 7c0 1.43.073 2.015.161 1.3s.089-1.885 0-2.6c-.088-.715-.161-.13-.161 1.3m273.25 66.2c.001 7.04.055 9.864.121 6.275a408 408 0 0 0 0-12.8c-.066-3.451-.121-.515-.121 6.525m-60.402 25.4c0 6.27.056 8.835.123 5.7.068-3.135.068-8.265 0-11.4-.067-3.135-.123-.57-.123 5.7m10.4 0c0 6.27.056 8.835.123 5.7.068-3.135.068-8.265 0-11.4-.067-3.135-.123-.57-.123 5.7m-60.798 24c0 6.93.055 9.765.121 6.3a395 395 0 0 0 0-12.6c-.066-3.465-.121-.63-.121 6.3m-24.819 18.4c0 3.19.062 4.495.138 2.9a74 74 0 0 0 0-5.8c-.076-1.595-.138-.29-.138 2.9M200.9 344.676c.385.1 1.015.1 1.4 0 .385-.101.07-.183-.7-.183s-1.085.082-.7.183m80.425.023c3.479.067 9.059.067 12.4 0s.495-.121-6.325-.121-9.554.055-6.075.121m74.775 0c3.245.067 8.555.067 11.8 0s.59-.122-5.9-.122-9.145.055-5.9.122"/><path fill="#545c5c" d="M31.1.7c17.215.058 45.385.058 62.6 0S96.83.595 62.4.595 13.885.642 31.1.7m131.429 0c7.001.061 18.341.061 25.2 0C194.588.638 188.86.588 175 .588S155.528.639 162.529.7M281.1.699c3.575.067 9.425.067 13 0 3.575-.066.65-.12-6.5-.12s-10.075.054-6.5.12M362.129.7c7.001.061 18.341.061 25.2 0C394.188.638 388.46.588 374.6.588S355.128.639 362.129.7M177.4 55.2l-3.2.253 3 .068c1.65.036 3.27-.108 3.6-.321s.42-.357.2-.321c-.22.037-1.84.182-3.6.321m20.3.291c.825.087 2.175.087 3 0 .825-.086.15-.157-1.5-.157s-2.325.071-1.5.157M168 56l-1.8.28 1.6.054c.88.029 1.87-.121 2.2-.334s.42-.363.2-.334c-.22.03-1.21.18-2.2.334m34.833-.248c.092.083 1.787.249 3.767.368 2.652.16 3.073.129 1.6-.116-2.085-.348-5.656-.516-5.367-.252M161.6 56.8l-1.4.295 1.276.052c.702.029 1.388-.127 1.524-.347s.192-.376.124-.347-.754.185-1.524.347m51.6-.006c.33.217 1.035.397 1.567.4 1.284.008.958-.219-.767-.536-.985-.181-1.222-.14-.8.136m-56.6.806-1.2.305 1.076.048c.592.026 1.188-.133 1.324-.353s.192-.379.124-.353-.664.185-1.324.353m62.141.101c.202.202.792.3 1.313.218.801-.126.744-.182-.367-.367-.794-.131-1.168-.073-.946.149m4.059.681c.33.223.945.409 1.367.412 1.023.008.704-.221-.767-.55-.876-.196-1.038-.159-.6.138m-74 .818-1 .32 1.1.04c.605.022 1.1-.14 1.1-.36s-.045-.382-.1-.36-.55.184-1.1.36m77.6 0c0 .22.495.387 1.1.372.975-.025 1.009-.067.3-.372-1.093-.469-1.4-.469-1.4 0M142 60.8c-.485.314-.428.389.3.394.495.003.9-.174.9-.394 0-.501-.424-.501-1.2 0m-3 .8c-.771.331-.769.345.076.372.482.015.988-.152 1.124-.372.292-.473-.099-.473-1.2 0m97.4.013c0 .213.356.387.791.387.751 0 .796.336.914 6.8l.124 6.801-.014-6.855c-.015-6.738-.03-6.861-.915-7.188-.542-.2-.9-.178-.9.055m-100.2.787c-.714.307-.685.347.276.372.592.015 1.188-.152 1.324-.372.295-.478-.489-.478-1.6 0m-5 1.6-1 .32 1.1.04c.605.022 1.1-.14 1.1-.36s-.045-.382-.1-.36-.55.184-1.1.36m-8.8 3.063c-2.763 1.088-3.814 1.529-7 2.936-4.239 1.874-7.056 3.279-6.895 3.44.093.092 1.682-.53 3.532-1.382 7.065-3.256 8.003-3.657 8.551-3.657.311 0 .676-.18.812-.4s.687-.4 1.224-.4.976-.18.976-.4.36-.4.8-.4.8-.18.8-.4-.045-.391-.1-.381-1.27.481-2.7 1.044m-27.124 13.22c-.948.552-1.648 1.078-1.556 1.17.246.246 3.48-1.545 3.48-1.927 0-.394.168-.46-1.924.757m-5.91 3.856A4702 4702 0 0 0 83.673 88c-1.132.77-2.062 1.552-2.066 1.738s.848-.318 1.893-1.121 2.44-1.799 3.1-2.214 1.38-.901 1.6-1.079.895-.579 1.5-.892c.605-.312 1.1-.717 1.1-.9 0-.182.225-.338.5-.345.595-.015 2.116-1.107 1.871-1.344-.094-.09-1.806.943-3.805 2.296m-10.983 7.877c-.76.65-1.203 1.177-.983 1.17.497-.014 2.753-1.967 2.53-2.19-.09-.089-.786.37-1.547 1.02m-4 3.2c-.76.65-1.203 1.177-.983 1.17.497-.014 2.753-1.967 2.53-2.19-.09-.089-.786.37-1.547 1.02m-8.594 7.684L63 105.8l2.9-2.789c2.694-2.591 3.083-3.011 2.789-3.011-.061 0-1.366 1.305-2.9 2.9m172.389 9.5c0 6.93.055 9.765.121 6.3a395 395 0 0 0 0-12.6c-.066-3.465-.121-.63-.121 6.3m-180.003-1.5L57 112.2l1.3-1.175c.715-.646 1.3-1.231 1.3-1.3 0-.309-.33-.037-1.425 1.175M188.9 123.097a86 86 0 0 0 6.2 0c1.705-.075.31-.136-3.1-.136s-4.805.061-3.1.136m-7.393.393c.719.089 1.799.087 2.4-.004s.013-.164-1.307-.162-1.812.077-1.093.166m-3.407.386c.385.1 1.015.1 1.4 0 .385-.101.07-.183-.7-.183s-1.085.082-.7.183M238.546 129c.001 2.2.068 3.049.149 1.887.081-1.163.081-2.963-.002-4-.082-1.038-.148-.087-.147 2.113M33.1 151.613c-.81 2.098-.846 2.387-.3 2.387.22 0 .4-.435.4-.967 0-.531.198-1.032.439-1.113.242-.08.377-.59.3-1.133-.12-.851-.235-.738-.839.826m-1.208 3.029c-.161.16-.292.567-.292.905 0 .45.118.495.445.168.245-.245.376-.652.292-.905s-.285-.329-.445-.168m-.813 2.315c-.164.417-.204.852-.088.967.364.365.685-.233.533-.993-.141-.696-.162-.695-.445.026m-.8 2.4c-.164.417-.204.852-.088.967.364.365.685-.233.533-.993-.141-.696-.162-.695-.445.026m-.8 2.4c-.164.417-.204.852-.088.967.364.365.685-.233.533-.993-.141-.696-.162-.695-.445.026m-.817 2.79c-.165.631-.206 1.242-.091 1.357.322.323.716-.966.544-1.781-.112-.533-.231-.422-.453.424m-.81 2.753c-.344 1.283-.307 2.3.082 2.3.184 0 .363-.72.398-1.6.07-1.786-.116-2.057-.48-.7m-.809 3.333c-.374.975-.288 2.167.157 2.167.22 0 .4-.63.4-1.4 0-1.518-.176-1.76-.557-.767m74.406 17.582c-.137.358-.231 1.041-.208 1.518.026.548.162.353.369-.53.35-1.487.255-2.07-.161-.988m-.782 5.252c-.37.369-.338 12.933.033 12.933.165 0 .3-2.97.3-6.6s-.015-6.6-.033-6.6-.154.12-.3.267m-76.762 15.056c.215 3.482.426 3.756.463.601.018-1.472-.114-2.767-.292-2.877s-.255.914-.171 2.276m77.295 1.853c0 .647.142 1.265.316 1.372s.245-.421.157-1.176c-.197-1.681-.473-1.795-.473-.196m.8 4.2c0 .537.147 1.068.328 1.179.18.112.249-.328.154-.976-.21-1.43-.482-1.544-.482-.203M24.768 216.7c.191 1.381.219 1.409.351.351.079-.632-.014-1.306-.207-1.499-.202-.202-.263.288-.144 1.148m78.06.776c-.015.482.152.988.372 1.124.473.292.473-.099 0-1.2-.331-.771-.345-.769-.372.076m160.522 5.911c-.124.323-.133.818-.019 1.1.113.282.22.086.237-.436.029-.845.109-.889.732-.4.634.498.649.483.151-.151-.668-.852-.812-.867-1.101-.113m108.253 2.313c-.989 1.155-3.752 4.215-6.14 6.8s-4.232 4.7-4.098 4.7c.443 0 8.635-8.381 8.635-8.835 0-.244.498-.921 1.107-1.505.98-.938 2.691-3.26 2.402-3.26-.06 0-.918.945-1.906 2.1m-106.403-.743c0 .365.81 1.474 1.8 2.464 1.84 1.84 2.532 1.975.893.175a42 42 0 0 1-1.8-2.15c-.636-.822-.893-.963-.893-.489m-1.6 12.443c0 7.867.142 12.2.4 12.2s.4-4.333.4-12.2-.142-12.2-.4-12.2-.4 4.333-.4 12.2m109.6 0c0 7.867.142 12.2.4 12.2s.4-4.333.4-12.2-.142-12.2-.4-12.2-.4 4.333-.4 12.2m-101.6-5.139c0 .511 8.444 9.429 8.692 9.18.092-.092-.656-1.039-1.662-2.104a1298 1298 0 0 1-4.429-4.725c-1.431-1.534-2.601-2.592-2.601-2.351m85.004 9.992a2943 2943 0 0 1-5.984 6.493c-1.193 1.286-1.362 1.602-.642 1.2 1.296-.724 2.822-2.203 2.822-2.737 0-.234.945-1.408 2.1-2.609 1.155-1.2 2.469-2.591 2.919-3.091s1.41-1.405 2.133-2.011c.722-.606 1.247-1.302 1.165-1.546-.081-.245-2.112 1.691-4.513 4.301m-75.804-.101c0 .603 4.413 5.235 8.235 8.643 1.429 1.274-1.632-2.105-5.043-5.566-.775-.786-1.81-1.948-2.3-2.583-.629-.814-.892-.959-.892-.494m-165.2-.027c0 .069.585.654 1.3 1.3l1.3 1.175-1.175-1.3c-1.095-1.212-1.425-1.484-1.425-1.175M33.676 249.8c.126.22.629 1.3 1.118 2.4 1.814 4.08 3.253 7 3.45 7 .112 0 .138-.135.058-.3s-.562-1.2-1.071-2.3a222 222 0 0 0-1.678-3.538c-.414-.846-.753-1.769-.753-2.051s-.305-.76-.677-1.062-.573-.369-.447-.149m88.724.751c0 .399.334.649.867.649.476 0 .791-.051.7-.113a33 33 0 0 1-.867-.649c-.599-.459-.7-.442-.7.113M263.388 275.8c0 13.64.05 19.278.112 12.529.061-6.749.061-17.909 0-24.8-.062-6.891-.112-1.369-.112 12.271M124 252.009c0 .229.278.523.617.653.938.36 1.049-.029.165-.581-.495-.309-.782-.335-.782-.072m3.878 3.139c.703.689 1.389 1.252 1.524 1.252.475 0-.241-.773-1.514-1.634l-1.288-.87zM292 254.125c0 .069.585.654 1.3 1.3l1.3 1.175-1.175-1.3c-1.095-1.212-1.425-1.484-1.425-1.175M39.218 261.4c0 .22.352.85.782 1.4s.782.82.782.6-.352-.85-.782-1.4-.782-.82-.782-.6m99.406 1.587c.427.323.956.588 1.176.588s.051-.265-.376-.588c-.428-.323-.957-.587-1.177-.587s-.051.264.377.587m163.38 2.113c1.408 1.595 2.629 2.9 2.715 2.9.265 0-2.977-3.744-4.156-4.8-.614-.55.034.305 1.441 1.9M144 265.988c.55.437 1.194.798 1.432.803s1.318.458 2.4 1.007 2.148.992 2.368.984c.464-.016-1.84-1.222-5-2.617-1.892-.834-2.06-.859-1.2-.177m189.2 1.412c-.972.99-1.677 1.8-1.567 1.8s.995-.81 1.967-1.8 1.677-1.8 1.567-1.8-.995.81-1.967 1.8m-97.2-.2c-.77.422-3.065 1.435-5.099 2.251s-3.632 1.551-3.549 1.635c.194.193 7.234-2.603 8.96-3.559.722-.4 1.391-.727 1.487-.727.095 0 .232 1.935.303 4.3l.128 4.3.085-4.5c.094-4.966.069-5.005-2.315-3.7m-190.563 4.6c.36.55.72 1 .8 1s-.059-.45-.31-1c-.25-.55-.611-1-.8-1s-.051.45.31 1m179.763-.2c-.533.345-.533.388 0 .388.33 0 .87-.175 1.2-.388.533-.345.533-.388 0-.388-.33 0-.87.175-1.2.388m83.983 1.307c.981 1.041 1.836 1.893 1.9 1.893.454 0-.721-1.317-2.492-2.793-.655-.547-.389-.142.592.9M222.8 272.4c-.533.345-.533.388 0 .388.33 0 .87-.175 1.2-.388.533-.345.533-.388 0-.388-.33 0-.87.175-1.2.388m-2.8.8c-.533.345-.533.388 0 .388.33 0 .87-.175 1.2-.388.533-.345.533-.388 0-.388-.33 0-.87.175-1.2.388m-172.889 1.174c.371.646.729 1.119.796 1.052.217-.217-.824-2.226-1.153-2.226-.174 0-.014.528.357 1.174M216.8 274c-.795.514.204.514 1.4 0l.8-.344-.8-.022c-.44-.012-1.07.153-1.4.366m-3.6.8c-.804.257-.843.323-.2.332.44.006 1.16-.143 1.6-.332 1.019-.438-.032-.438-1.4 0m-40 .88c0 .176.63.32 1.4.32s1.4-.07 1.4-.156-.63-.23-1.4-.32-1.4-.02-1.4.156m5.6.8c0 .176.855.306 1.9.288 2.091-.034 1.922-.229-.4-.459-.825-.081-1.5-.005-1.5.171m23.7-.204c.385.1 1.015.1 1.4 0 .385-.101.07-.183-.7-.183s-1.085.082-.7.183m35.703 23.806c-.161 13.265-.219 24.568-.13 25.118.09.55.31-10.215.489-23.923s.238-25.011.13-25.118c-.108-.108-.327 10.657-.489 23.923M49.991 278.788c.466.653 1.051 1.314 1.3 1.468.25.155-.05-.38-.666-1.188-1.337-1.753-1.841-1.976-.634-.28m9.411 11.614c.4.442.809.72.91.619.216-.216-.924-1.421-1.345-1.421-.16 0 .036.361.435.802m253.647 9.813c-.137.358-.209 6.081-.16 12.718l.089 12.067.211-12.6c.227-13.536.231-13.15-.14-12.185M324.4 312.6c0 7.867.142 12.2.4 12.2s.4-4.333.4-12.2-.142-12.2-.4-12.2-.4 4.333-.4 12.2m-11.108 22.091-.092 9.69-6.9.12-6.9.119 6.913.09c5.287.069 6.958-.029 7.107-.418.107-.28.143-4.735.08-9.9l-.115-9.392zM111.4 327.844c2.99 1.731 10.828 4.849 10.384 4.13-.127-.206-.454-.374-.727-.374s-2.558-.914-5.077-2.03c-5.217-2.313-6.294-2.718-4.58-1.726m11.033 4.691c.386.312 3.567 1.442 3.567 1.267 0-.239-2.749-1.402-3.316-1.402-.229 0-.342.061-.251.135M131.8 336c1.101.473 1.492.473 1.2 0-.136-.22-.642-.387-1.124-.372-.845.027-.847.041-.076.372m2.4.8c1.101.473 1.492.473 1.2 0-.136-.22-.642-.387-1.124-.372-.845.027-.847.041-.076.372m23 5.355c0 .085.53.232 1.179.327.648.095 1.088.026.976-.154-.198-.321-2.155-.478-2.155-.173m5.233.788c.092.079.887.254 1.767.389 1.09.167 1.409.123 1-.137-.547-.349-3.155-.586-2.767-.252m49.267.533c.385.1 1.015.1 1.4 0 .385-.101.07-.183-.7-.183s-1.085.082-.7.183m-42.5.347c1.486.324 3.526.38 3.348.093-.107-.174-1.04-.295-2.072-.27-1.032.026-1.606.106-1.276.177m35.3.464a9 9 0 0 0 2.2 0c.605-.092.11-.167-1.1-.167s-1.705.075-1.1.167m-20.977.412c2.708.069 7.028.069 9.6 0 2.572-.07.357-.127-4.923-.126-5.28 0-7.385.057-4.677.126m82.995-.001c1.715.075 4.415.074 6-.001 1.585-.076.182-.138-3.118-.137s-4.597.062-2.882.138m64.407.001c3.699.067 9.639.066 13.2 0s.535-.12-6.725-.12-10.174.054-6.475.12"/><path fill="#747471" d="M24.9 1.1c13.805.058 36.395.058 50.2 0S77.61.994 50 .994s-38.905.048-25.1.106m137.829 0c6.891.061 18.051.061 24.8 0 6.749-.062 1.111-.112-12.529-.112s-19.162.05-12.271.112m99.8 0c7.001.061 18.341.061 25.2 0 6.859-.062 1.131-.112-12.729-.112s-19.472.051-12.471.112m100 0c7.001.061 18.341.061 25.2 0 6.859-.062 1.131-.112-12.729-.112s-19.472.051-12.471.112M170.505 55.487c.609.092 1.509.09 2-.005s-.005-.171-1.105-.168-1.503.081-.895.173m33.195 0a9 9 0 0 0 2.2 0c.605-.092.11-.167-1.1-.167s-1.705.075-1.1.167m8 .789c.385.1 1.015.1 1.4 0 .385-.101.07-.183-.7-.183s-1.085.082-.7.183m27.288 44.324c0 13.86.051 19.472.112 12.471s.061-18.341 0-25.2c-.062-6.859-.112-1.131-.112 12.729M70.981 97.7 69.4 99.4l1.7-1.581c.935-.87 1.7-1.635 1.7-1.7 0-.303-.348 0-1.819 1.581m-13.206 12.8-1.175 1.3 1.3-1.175c.715-.646 1.3-1.231 1.3-1.3 0-.309-.33-.037-1.425 1.175m-4.231 5c-1.151 1.389-1.638 2.1-1.44 2.1.11 0 .682-.63 1.269-1.4 1.09-1.429 1.222-1.968.171-.7m127.118 8.4c-.102.165.652.246 1.676.18 2.921-.187 3.276-.383.786-.434-1.252-.025-2.36.089-2.462.254m22.498.22c.186.186.946.276 1.689.199 1.318-.136 1.309-.144-.339-.339-.929-.109-1.537-.047-1.35.14m-28.56.68c-.292.473.099.473 1.2 0 .771-.331.769-.345-.076-.372-.482-.015-.988.152-1.124.372m59.8 7.784c0 .11.72.567 1.6 1.016s1.6.726 1.6.616-.72-.567-1.6-1.016-1.6-.726-1.6-.616m-106.706 13.428c-.719.653-1.157 1.188-.975 1.188s.849-.54 1.481-1.2c1.47-1.535 1.186-1.528-.506.012M24.093 182.8c0 .77.082 1.085.183.7s.1-1.015 0-1.4c-.101-.385-.183-.07-.183.7m-.727 5.345c-.115.299-.152 1.604-.082 2.9l.128 2.355.194-2.901c.195-2.911.148-3.366-.24-2.354m77.989 11.255c.001 2.86.065 3.978.142 2.483.077-1.494.077-3.834-.001-5.2-.078-1.365-.141-.143-.141 2.717m-78.027 3.8c0 1.43.073 2.015.161 1.3s.089-1.885 0-2.6c-.088-.715-.161-.13-.161 1.3m239.626 19.777c-.122.317-.151.902-.065 1.3.098.451.235.235.365-.577.217-1.362.076-1.704-.3-.723M374.178 238c0 6.71.054 9.455.121 6.1s.067-8.845 0-12.2-.121-.61-.121 6.1M270.6 230.4c1.083 1.1 2.06 2 2.17 2s-.687-.9-1.77-2-2.06-2-2.17-2 .687.9 1.77 2m-157.163 7.8c.36.55.72 1 .8 1s-.059-.45-.31-1c-.25-.55-.611-1-.8-1s-.051.45.31 1m165.763 1.6c1.195 1.21 2.263 2.2 2.373 2.2s-.778-.99-1.973-2.2-2.263-2.2-2.373-2.2.778.99 1.973 2.2M118 243.852c0 .212.765 1.097 1.7 1.967l1.7 1.581-1.6-1.794c-.88-.986-1.645-1.871-1.7-1.967-.055-.095-.1.001-.1.213m5.5 6.465c.385.394.767.553.849.353.082-.199-.098-.519-.4-.71-.935-.593-1.183-.395-.449.357m217.085 8.583L338.6 261l2.1-1.985c1.155-1.092 2.1-2.037 2.1-2.1 0-.298-.371.034-2.215 1.985m-37.385 6.825c0 .069.585.654 1.3 1.3l1.3 1.175-1.175-1.3c-1.095-1.212-1.425-1.484-1.425-1.175m-100.495 10.158c.497.096 1.217.092 1.6-.008.382-.1-.025-.179-.905-.174-.88.004-1.193.086-.695.182m110.789.551c.36.461.524 3.821.606 12.4l.113 11.766.093-11.851c.086-10.877.036-11.896-.606-12.4-.619-.485-.643-.475-.206.085M66 297.4c1.417 1.43 2.667 2.6 2.777 2.6s-.96-1.17-2.377-2.6-2.667-2.6-2.777-2.6.96 1.17 2.377 2.6m5.2 5.303c1.21 1.134 2.331 2.069 2.491 2.079s-.47-.662-1.4-1.493c-2.701-2.415-3.504-2.845-1.091-.586M313.778 313.2c0 6.93.055 9.765.121 6.3a395 395 0 0 0 0-12.6c-.066-3.465-.121-.63-.121 6.3m10.4 0c0 6.93.055 9.765.121 6.3a395 395 0 0 0 0-12.6c-.066-3.465-.121-.63-.121 6.3M88.4 315.982c1.077.908 3.2 2.148 3.2 1.868 0-.094-.675-.591-1.5-1.104-2.423-1.507-2.76-1.658-1.7-.764M238.961 331.6c0 3.41.061 4.805.136 3.1a86 86 0 0 0 0-6.2c-.075-1.705-.136-.31-.136 3.1m135.211 3.6c0 5.17.057 7.285.127 4.7.069-2.585.069-6.815 0-9.4-.07-2.585-.127-.47-.127 4.7m-92.847 9.899c3.479.067 9.059.067 12.4 0s.495-.121-6.325-.121-9.554.055-6.075.121m74.575 0c3.135.068 8.265.068 11.4 0 3.135-.067.57-.123-5.7-.123s-8.835.056-5.7.123"/><path fill="#5c645c" d="M131.325.699c3.479.067 9.059.067 12.4 0s.495-.121-6.325-.121-9.554.055-6.075.121m44.966 54.39c.71.088 1.97.09 2.8.003s.249-.159-1.291-.161-2.219.069-1.509.158m20.809-.007a5.7 5.7 0 0 0 1.8 0c.495-.095.09-.173-.9-.173s-1.395.078-.9.173M120.181 152.5l-1.581 1.7 1.7-1.581c1.581-1.471 1.884-1.819 1.581-1.819-.065 0-.83.765-1.7 1.7M100.928 202c0 1.43.073 2.015.161 1.3s.089-1.885 0-2.6c-.088-.715-.161-.13-.161 1.3m.365 6c0 .77.082 1.085.183.7s.1-1.015 0-1.4c-.101-.385-.183-.07-.183.7M294.4 256.525c0 .069.585.654 1.3 1.3L297 259l-1.175-1.3c-1.095-1.212-1.425-1.484-1.425-1.175m6.8 7.275c.746.77 1.447 1.4 1.557 1.4s-.411-.63-1.157-1.4-1.447-1.4-1.557-1.4.411.63 1.157 1.4m72.978 24.4c0 6.82.054 9.666.121 6.325s.067-8.921 0-12.4c-.066-3.479-.121-.745-.121 6.075m-60.8 24.6c0 6.71.054 9.455.121 6.1s.067-8.845 0-12.2-.121-.61-.121 6.1m-50.005 21.8c0 5.28.057 7.385.126 4.677a223 223 0 0 0 0-9.6c-.07-2.572-.127-.357-.126 4.923M183.5 345.099c2.475.07 6.525.07 9 0s.45-.128-4.5-.128-6.975.057-4.5.128"/></g></svg>